<svg width="533" height="507" viewBox="0 0 533 507" fill="none" xmlns="http://www.w3.org/2000/svg">
<path d="M266.115 506.825C413.086 506.825 532.23 393.369 532.23 253.413C532.23 113.457 413.086 0 266.115 0C119.144 0 0 113.457 0 253.413C0 393.369 119.144 506.825 266.115 506.825Z" fill="#FFA900"/>
<path d="M100.398 271.007C98.1854 271.007 96.7675 272.19 96.1146 272.889C95.4768 273.584 94.4414 275.059 94.6116 277.21C102.303 372.516 183.539 380.491 266.081 380.491C346.75 380.491 430.171 380.491 437.621 277.243C437.782 275.049 436.718 273.555 436.075 272.86C435.428 272.171 434.019 271.007 431.83 271.007H100.398ZM266.081 399.4C198.545 399.4 85.4971 399.4 75.7629 278.732C75.2102 271.915 77.5641 265.117 82.2208 260.068C86.8917 255.001 93.5145 252.098 100.398 252.098H431.83C438.661 252.098 445.256 254.967 449.913 259.983C454.584 264.994 456.975 271.783 456.484 278.6C447.757 399.4 347.03 399.4 266.081 399.4Z" fill="black"/>
<path d="M266.114 92.4946C197.212 92.4946 134.124 127.345 97.3488 185.729C93.8691 191.246 93.6801 197.964 96.8427 203.684C100.01 209.428 105.816 212.855 112.363 212.855H419.87C426.417 212.855 432.218 209.428 435.385 203.684C438.548 197.964 438.354 191.246 434.88 185.729C398.109 127.345 335.026 92.4946 266.114 92.4946ZM419.87 231.765H112.363C98.8239 231.765 86.8352 224.684 80.287 212.827C73.7539 200.98 74.1462 187.086 81.3465 175.65C121.606 111.735 190.673 73.5842 266.114 73.5842C341.554 73.5842 410.627 111.74 450.877 175.65C458.081 187.081 458.479 200.98 451.941 212.822C445.393 224.684 433.405 231.765 419.87 231.765Z" fill="black"/>
<path d="M89.2888 231.656C85.861 231.656 82.8407 234.086 82.1126 237.434C81.4552 240.421 82.7413 242.581 83.5636 243.608C84.3912 244.629 86.2255 246.345 89.2888 246.345H442.94C446.273 246.345 449.195 244.094 450.04 240.875C450.627 238.653 450.154 236.336 448.75 234.516C447.35 232.701 445.233 231.656 442.94 231.656H89.2888ZM442.94 265.254H89.2888C81.2948 265.254 73.8437 261.685 68.8377 255.464C63.8264 249.242 61.9356 241.201 63.6374 233.4C66.2519 221.431 77.0395 212.747 89.2888 212.747H442.94C451.137 212.747 458.716 216.476 463.722 222.972C468.737 229.467 470.411 237.745 468.331 245.673C465.301 257.203 454.858 265.254 442.94 265.254Z" fill="black"/>
<path d="M454.962 266.541H455.009H454.962ZM101.618 266.541C105.295 269.287 108.425 272.279 111.286 275.016C118.769 282.178 124.678 287.833 137.021 287.833C149.356 287.833 155.265 282.178 162.743 275.016C165.627 272.26 168.743 269.278 172.402 266.541H101.618ZM230.687 266.541C234.35 269.278 237.471 272.26 240.35 275.016C247.833 282.178 253.743 287.833 266.091 287.833C278.429 287.833 284.338 282.178 291.822 275.016C294.701 272.265 297.821 269.278 301.485 266.541H230.687ZM359.789 266.541C363.448 269.278 366.568 272.26 369.451 275.016C376.935 282.178 382.844 287.833 395.188 287.833C407.536 287.833 413.445 282.178 420.929 275.016C423.794 272.279 426.918 269.287 430.597 266.541H359.789ZM395.188 306.742C375.257 306.742 364.79 296.73 356.375 288.684C348.892 281.522 342.978 275.867 330.634 275.867C318.291 275.867 312.382 281.522 304.898 288.684C296.484 296.73 286.017 306.742 266.091 306.742C246.155 306.742 235.688 296.73 227.278 288.684C219.795 281.522 213.885 275.867 201.542 275.867C189.208 275.867 183.298 281.522 175.82 288.684C167.414 296.73 156.948 306.742 137.021 306.742C117.091 306.742 106.624 296.73 98.2096 288.684C91.3782 282.136 85.9792 276.969 75.9475 276.023C68.5868 275.333 63.0273 269.249 63.0273 261.87C63.0273 254.017 69.4144 247.63 77.2668 247.63H454.962C462.814 247.63 469.196 254.017 469.196 261.87C469.196 269.249 463.641 275.333 456.267 276.023C446.244 276.969 440.841 282.141 434 288.684C425.59 296.73 415.124 306.742 395.188 306.742Z" fill="black"/>
<path d="M206.425 172.559C203.986 176.294 198.984 177.334 195.254 174.899C191.524 172.455 190.48 167.453 192.923 163.723C195.363 159.993 207.111 148.642 210.84 151.082C214.566 153.526 208.869 168.828 206.425 172.559Z" fill="black"/>
<path d="M154.357 182.349C151.516 185.781 146.429 186.263 142.997 183.422C139.56 180.586 139.078 175.499 141.919 172.062C144.761 168.626 157.694 158.655 161.131 161.496C164.563 164.333 157.198 178.912 154.357 182.349Z" fill="black"/>
<path d="M268.876 186.736C268.592 191.19 264.757 194.565 260.305 194.286C255.865 194.007 252.485 190.168 252.764 185.724C253.048 181.271 257.657 165.604 262.105 165.883C266.549 166.167 269.154 182.292 268.876 186.736Z" fill="black"/>
<path d="M260.692 134.616C258.915 138.7 254.149 140.568 250.07 138.781C245.985 136.998 244.122 132.238 245.909 128.158C247.692 124.074 257.378 110.917 261.467 112.704C265.547 114.486 262.474 130.536 260.692 134.616Z" fill="black"/>
<path d="M332.166 124.934C334.932 128.432 334.341 133.51 330.842 136.275C327.349 139.041 322.271 138.445 319.506 134.947C316.74 131.453 309.697 116.717 313.19 113.952C316.684 111.187 329.401 121.44 332.166 124.934Z" fill="black"/>
<path d="M332.417 191.898C333.613 196.191 331.107 200.644 326.81 201.845C322.518 203.041 318.069 200.526 316.868 196.233C315.672 191.941 314.873 175.632 319.171 174.431C323.458 173.235 331.221 187.606 332.417 191.898Z" fill="black"/>
<path d="M386.239 163.09C388.876 166.678 388.106 171.731 384.513 174.369C380.92 177.007 375.871 176.236 373.233 172.644C370.596 169.051 364.072 154.074 367.664 151.436C371.257 148.798 383.601 159.497 386.239 163.09Z" fill="black"/>
</svg>
