<svg width="130" height="43" viewBox="0 0 130 43" fill="none" xmlns="http://www.w3.org/2000/svg">
<path d="M59.8066 40.8719V31.9648V23.0578H72.3322V26.9546H64.6429V30.0164H71.5668V33.9133H64.6429V40.8719H59.8066Z" fill="black"/>
<path d="M91.3685 31.9648C91.3685 33.9481 90.9829 35.621 90.2116 36.9838C89.4404 38.3407 88.3995 39.37 87.0889 40.0717C85.7784 40.7675 84.3171 41.1155 82.705 41.1155C81.0813 41.1155 79.6142 40.7646 78.3036 40.063C76.9989 39.3555 75.9609 38.3233 75.1896 36.9664C74.4242 35.6036 74.0414 33.9365 74.0414 31.9648C74.0414 29.9816 74.4242 28.3115 75.1896 26.9546C75.9609 25.5919 76.9989 24.5626 78.3036 23.8667C79.6142 23.165 81.0813 22.8142 82.705 22.8142C84.3171 22.8142 85.7784 23.165 87.0889 23.8667C88.3995 24.5626 89.4404 25.5919 90.2116 26.9546C90.9829 28.3115 91.3685 29.9816 91.3685 31.9648ZM86.3931 31.9648C86.3931 30.8978 86.251 29.999 85.9668 29.2684C85.6885 28.5319 85.2739 27.9752 84.723 27.5983C84.1779 27.2156 83.5052 27.0242 82.705 27.0242C81.9047 27.0242 81.2292 27.2156 80.6783 27.5983C80.1332 27.9752 79.7185 28.5319 79.4344 29.2684C79.1561 29.999 79.0169 30.8978 79.0169 31.9648C79.0169 33.0318 79.1561 33.9336 79.4344 34.67C79.7185 35.4007 80.1332 35.9574 80.6783 36.3401C81.2292 36.717 81.9047 36.9055 82.705 36.9055C83.5052 36.9055 84.1779 36.717 84.723 36.3401C85.2739 35.9574 85.6885 35.4007 85.9668 34.67C86.251 33.9336 86.3931 33.0318 86.3931 31.9648Z" fill="black"/>
<path d="M110.864 31.9648C110.864 33.9481 110.478 35.621 109.707 36.9838C108.935 38.3407 107.895 39.37 106.584 40.0717C105.273 40.7675 103.812 41.1155 102.2 41.1155C100.576 41.1155 99.1093 40.7646 97.7987 40.063C96.494 39.3555 95.456 38.3233 94.6847 36.9664C93.9193 35.6036 93.5366 33.9365 93.5366 31.9648C93.5366 29.9816 93.9193 28.3115 94.6847 26.9546C95.456 25.5919 96.494 24.5626 97.7987 23.8667C99.1093 23.165 100.576 22.8142 102.2 22.8142C103.812 22.8142 105.273 23.165 106.584 23.8667C107.895 24.5626 108.935 25.5919 109.707 26.9546C110.478 28.3115 110.864 29.9816 110.864 31.9648ZM105.888 31.9648C105.888 30.8978 105.746 29.999 105.462 29.2684C105.184 28.5319 104.769 27.9752 104.218 27.5983C103.673 27.2156 103 27.0242 102.2 27.0242C101.4 27.0242 100.724 27.2156 100.173 27.5983C99.6283 27.9752 99.2137 28.5319 98.9295 29.2684C98.6512 29.999 98.512 30.8978 98.512 31.9648C98.512 33.0318 98.6512 33.9336 98.9295 34.67C99.2137 35.4007 99.6283 35.9574 100.173 36.3401C100.724 36.717 101.4 36.9055 102.2 36.9055C103 36.9055 103.673 36.717 104.218 36.3401C104.769 35.9574 105.184 35.4007 105.462 34.67C105.746 33.9336 105.888 33.0318 105.888 31.9648Z" fill="black"/>
<path d="M119.956 40.8719H113.101V31.9648V23.0578H119.886C121.718 23.0578 123.301 23.4144 124.635 24.1277C125.975 24.8351 127.007 25.8557 127.732 27.1895C128.462 28.5174 128.828 30.1092 128.828 31.9648C128.828 33.8205 128.465 35.4152 127.741 36.7489C127.016 38.0769 125.989 39.0975 124.661 39.8107C123.333 40.5182 121.765 40.8719 119.956 40.8719ZM117.938 36.7663H119.782C120.663 36.7663 121.414 36.6242 122.034 36.3401C122.661 36.056 123.136 35.5659 123.461 34.8701C123.791 34.1742 123.957 33.2058 123.957 31.9648C123.957 30.7239 123.789 29.7555 123.452 29.0596C123.122 28.3637 122.635 27.8737 121.991 27.5896C121.353 27.3054 120.57 27.1634 119.642 27.1634H117.938V36.7663Z" fill="black"/>
<path d="M4.5766 25.1269C4.30565 25.1269 4.132 25.2774 4.05204 25.3664C3.97393 25.4549 3.84712 25.6426 3.86796 25.9164C4.80993 38.0464 14.7591 39.0614 24.8682 39.0614C34.748 39.0614 44.9647 39.0614 45.8772 25.9206C45.8968 25.6414 45.7666 25.4513 45.6878 25.3628C45.6085 25.275 45.436 25.1269 45.1679 25.1269H4.5766V25.1269ZM24.8682 41.4681C16.5969 41.4681 2.75169 41.4681 1.55952 26.1101C1.49183 25.2425 1.78012 24.3773 2.35043 23.7347C2.92249 23.0897 3.73359 22.7202 4.5766 22.7202H45.1679C46.0045 22.7202 46.8122 23.0855 47.3825 23.7238C47.9546 24.3617 48.2475 25.2256 48.1873 26.0933C47.1185 41.4681 34.7822 41.4681 24.8682 41.4681Z" fill="black"/>
<path d="M24.8722 2.40681C16.4336 2.40681 8.70701 6.84235 4.20311 14.2732C3.77695 14.9754 3.7538 15.8304 4.14114 16.5584C4.52903 17.2894 5.24007 17.7257 6.04195 17.7257H43.703C44.5049 17.7257 45.2153 17.2894 45.6032 16.5584C45.9905 15.8304 45.9668 14.9754 45.5413 14.2732C41.038 6.84235 33.3121 2.40681 24.8722 2.40681V2.40681ZM43.703 20.1324H6.04195C4.38377 20.1324 2.91549 19.2311 2.11352 17.722C1.31339 16.2143 1.36144 14.4459 2.24328 12.9904C7.1739 4.8556 15.6328 0 24.8722 0C34.1115 0 42.5711 4.85627 47.5006 12.9904C48.3829 14.4453 48.4316 16.2143 47.6308 17.7215C46.8289 19.2311 45.3606 20.1324 43.703 20.1324Z" fill="black"/>
<path d="M3.21642 20.1186C2.79662 20.1186 2.42671 20.4279 2.33753 20.8539C2.25702 21.2341 2.41454 21.5091 2.51525 21.6397C2.6166 21.7697 2.84125 21.9881 3.21642 21.9881H46.5289C46.9371 21.9881 47.2949 21.7016 47.3985 21.2919C47.4703 21.0091 47.4124 20.7143 47.2404 20.4826C47.0691 20.2516 46.8098 20.1186 46.5289 20.1186H3.21642V20.1186ZM46.5289 24.3948H3.21642C2.23738 24.3948 1.32483 23.9405 0.711728 23.1487C0.0979824 22.3569 -0.13359 21.3334 0.0748339 20.3406C0.395033 18.8171 1.71622 17.7119 3.21642 17.7119H46.5289C47.5329 17.7119 48.461 18.1866 49.0741 19.0133C49.6884 19.84 49.8934 20.8936 49.6386 21.9026C49.2675 23.3701 47.9886 24.3948 46.5289 24.3948V24.3948Z" fill="black"/>
<path d="M48.0011 24.5584H48.007H48.0011ZM4.72625 24.5584C5.17667 24.908 5.55995 25.2888 5.91031 25.6372C6.82682 26.5487 7.55049 27.2684 9.06222 27.2684C10.5728 27.2684 11.2965 26.5487 12.2125 25.6372C12.5657 25.2864 12.9472 24.9068 13.3953 24.5584H4.72625ZM20.5337 24.5584C20.9823 24.9068 21.3645 25.2864 21.7171 25.6372C22.6336 26.5487 23.3574 27.2684 24.8696 27.2684C26.3808 27.2684 27.1045 26.5487 28.021 25.6372C28.3737 25.287 28.7557 24.9068 29.2045 24.5584H20.5337ZM36.3451 24.5584C36.7932 24.9068 37.1753 25.2864 37.5285 25.6372C38.445 26.5487 39.1687 27.2684 40.6805 27.2684C42.1927 27.2684 42.9165 26.5487 43.833 25.6372C44.1839 25.2888 44.5666 24.908 45.0171 24.5584H36.3451ZM40.6805 29.6751C38.2395 29.6751 36.9576 28.4007 35.927 27.3767C35.0105 26.4651 34.2862 25.7455 32.7745 25.7455C31.2627 25.7455 30.5391 26.4651 29.6225 27.3767C28.592 28.4007 27.31 29.6751 24.8696 29.6751C22.428 29.6751 21.1462 28.4007 20.1162 27.3767C19.1997 26.4651 18.4759 25.7455 16.9642 25.7455C15.4537 25.7455 14.7299 26.4651 13.8139 27.3767C12.7845 28.4007 11.5026 29.6751 9.06222 29.6751C6.62125 29.6751 5.33935 28.4007 4.30885 27.3767C3.4722 26.5434 2.81096 25.8857 1.58237 25.7653C0.680884 25.6775 0 24.9032 0 23.9639C0 22.9645 0.782239 22.1516 1.74394 22.1516H48.0011C48.9628 22.1516 49.7444 22.9645 49.7444 23.9639C49.7444 24.9032 49.0641 25.6775 48.161 25.7653C46.9335 25.8857 46.2717 26.5439 45.4339 27.3767C44.4039 28.4007 43.1221 29.6751 40.6805 29.6751Z" fill="black"/>
<path d="M17.5625 12.5971C17.2637 13.0724 16.6511 13.2048 16.1942 12.8949C15.7375 12.5838 15.6095 11.9473 15.9088 11.4725C16.2076 10.9978 17.6464 9.55311 18.1032 9.86363C18.5594 10.1746 17.8617 12.1223 17.5625 12.5971V12.5971Z" fill="black"/>
<path d="M11.1856 13.8431C10.8377 14.2799 10.2147 14.3413 9.79435 13.9797C9.37344 13.6186 9.31433 12.9712 9.66228 12.5338C10.0103 12.0964 11.5944 10.8274 12.0153 11.189C12.4356 11.55 11.5336 13.4057 11.1856 13.8431Z" fill="black"/>
<path d="M25.2105 14.4014C25.1758 14.9682 24.7062 15.3977 24.1608 15.3623C23.6171 15.3267 23.2032 14.8382 23.2373 14.2726C23.2721 13.7058 23.8366 11.7118 24.3813 11.7473C24.9256 11.7834 25.2446 13.8357 25.2105 14.4014Z" fill="black"/>
<path d="M24.208 7.76769C23.9904 8.28753 23.4067 8.52521 22.9071 8.29778C22.4068 8.07093 22.1787 7.46503 22.3976 6.94578C22.6159 6.42594 23.8022 4.75144 24.303 4.97887C24.8027 5.20572 24.4263 7.24844 24.208 7.76769V7.76769Z" fill="black"/>
<path d="M32.9621 6.53563C33.3008 6.9808 33.2284 7.62705 32.7999 7.97906C32.3721 8.33099 31.7502 8.25518 31.4116 7.81C31.0729 7.36531 30.2102 5.48983 30.638 5.13791C31.066 4.78589 32.6234 6.09093 32.9621 6.53563V6.53563Z" fill="black"/>
<path d="M32.9932 15.0583C33.1396 15.6047 32.8328 16.1715 32.3065 16.3243C31.7808 16.4765 31.236 16.1564 31.0889 15.6101C30.9424 15.0638 30.8446 12.988 31.3709 12.8351C31.896 12.6829 32.8467 14.512 32.9932 15.0583Z" fill="black"/>
<path d="M39.5847 11.3918C39.9078 11.8485 39.8134 12.4917 39.3733 12.8274C38.9333 13.1632 38.315 13.0651 37.9919 12.6078C37.6689 12.1506 36.8698 10.2444 37.3098 9.90861C37.7499 9.57289 39.2617 10.9346 39.5847 11.3918Z" fill="black"/>
<path fill-rule="evenodd" clip-rule="evenodd" d="M59.7461 0V17.8142H64.5824V10.8555H70.9843V17.8142H75.8206V0H70.9843V6.95866H64.5824V0H59.7461ZM78.1169 0V17.8142H90.9209V13.9173H82.9532V10.8555H90.2946V6.95866H82.9532V3.89685H90.9557V0H78.1169ZM98.5384 0L101.461 5.1842H101.6L104.558 0H109.951L104.627 8.90708L110.159 17.8142H104.627L101.6 12.5256H101.461L98.4341 17.8142H92.9367L98.3993 8.90708L93.1107 0H98.5384ZM111.445 17.8142H116.664L117.693 14.4044H123.567L124.596 17.8142H129.815L123.935 0H117.325L111.445 17.8142ZM122.475 10.7859L120.7 4.90585H120.56L118.785 10.7859H122.475Z" fill="white"/>
</svg>
