<svg width="1190" height="507" viewBox="0 0 1190 507" fill="none" xmlns="http://www.w3.org/2000/svg">
<g clip-path="url(#clip0_21_132)">
<path d="M272.115 506.825C419.086 506.825 538.23 393.369 538.23 253.413C538.23 113.457 419.086 0 272.115 0C125.144 0 6 113.457 6 253.413C6 393.369 125.144 506.825 272.115 506.825Z" fill="#FFA900"/>
<path d="M106.398 271.007C104.185 271.007 102.767 272.19 102.115 272.889C101.477 273.584 100.441 275.059 100.612 277.21C108.303 372.516 189.539 380.491 272.081 380.491C352.75 380.491 436.171 380.491 443.621 277.243C443.782 275.049 442.718 273.555 442.075 272.86C441.428 272.171 440.019 271.007 437.83 271.007H106.398V271.007ZM272.081 399.4C204.545 399.4 91.4971 399.4 81.7629 278.732C81.2102 271.915 83.5641 265.117 88.2208 260.068C92.8917 255.001 99.5144 252.098 106.398 252.098H437.83C444.661 252.098 451.256 254.967 455.913 259.983C460.584 264.994 462.975 271.783 462.484 278.6C453.757 399.4 353.029 399.4 272.081 399.4Z" fill="black"/>
<path d="M272.114 92.4944C203.212 92.4944 140.124 127.345 103.349 185.729C99.8691 191.246 99.6801 197.964 102.843 203.684C106.01 209.427 111.816 212.855 118.363 212.855H425.87C432.417 212.855 438.218 209.427 441.385 203.684C444.548 197.964 444.354 191.246 440.88 185.729C404.109 127.345 341.026 92.4944 272.114 92.4944V92.4944ZM425.87 231.765H118.363C104.824 231.765 92.8352 224.683 86.287 212.826C79.7539 200.98 80.1462 187.085 87.3465 175.65C127.606 111.735 196.673 73.584 272.114 73.584C347.554 73.584 416.627 111.74 456.877 175.65C464.081 187.081 464.479 200.98 457.941 212.822C451.393 224.683 439.404 231.765 425.87 231.765Z" fill="black"/>
<path d="M95.2888 231.656C91.8611 231.656 88.8407 234.086 88.1126 237.433C87.4552 240.421 88.7413 242.581 89.5636 243.607C90.3912 244.628 92.2255 246.344 95.2888 246.344H448.94C452.273 246.344 455.195 244.094 456.04 240.875C456.627 238.652 456.154 236.336 454.75 234.516C453.35 232.701 451.233 231.656 448.94 231.656H95.2888V231.656ZM448.94 265.254H95.2888C87.2948 265.254 79.8437 261.685 74.8377 255.463C69.8264 249.242 67.9356 241.201 69.6374 233.4C72.2519 221.43 83.0395 212.747 95.2888 212.747H448.94C457.137 212.747 464.716 216.476 469.722 222.972C474.737 229.467 476.411 237.745 474.331 245.673C471.301 257.203 460.858 265.254 448.94 265.254V265.254Z" fill="black"/>
<path d="M460.962 266.54H461.009H460.962ZM107.618 266.54C111.295 269.287 114.425 272.279 117.286 275.016C124.769 282.178 130.678 287.832 143.021 287.832C155.356 287.832 161.265 282.178 168.743 275.016C171.627 272.26 174.743 269.277 178.402 266.54H107.618ZM236.687 266.54C240.35 269.277 243.471 272.26 246.35 275.016C253.833 282.178 259.743 287.832 272.091 287.832C284.429 287.832 290.338 282.178 297.822 275.016C300.701 272.265 303.821 269.277 307.485 266.54H236.687ZM365.789 266.54C369.448 269.277 372.568 272.26 375.451 275.016C382.935 282.178 388.844 287.832 401.188 287.832C413.536 287.832 419.445 282.178 426.929 275.016C429.794 272.279 432.918 269.287 436.597 266.54H365.789ZM401.188 306.742C381.257 306.742 370.79 296.729 362.375 288.683C354.892 281.521 348.978 275.867 336.634 275.867C324.291 275.867 318.382 281.521 310.898 288.683C302.484 296.729 292.017 306.742 272.091 306.742C252.155 306.742 241.688 296.729 233.278 288.683C225.795 281.521 219.885 275.867 207.542 275.867C195.208 275.867 189.298 281.521 181.82 288.683C173.414 296.729 162.948 306.742 143.021 306.742C123.091 306.742 112.624 296.729 104.21 288.683C97.3782 282.136 91.9792 276.969 81.9475 276.023C74.5868 275.333 69.0273 269.249 69.0273 261.869C69.0273 254.017 75.4144 247.63 83.2668 247.63H460.962C468.814 247.63 475.196 254.017 475.196 261.869C475.196 269.249 469.641 275.333 462.267 276.023C452.244 276.969 446.841 282.14 440 288.683C431.59 296.729 421.124 306.742 401.188 306.742Z" fill="black"/>
<path d="M212.425 172.558C209.986 176.293 204.984 177.333 201.254 174.899C197.524 172.454 196.48 167.453 198.923 163.722C201.363 159.993 213.111 148.642 216.84 151.082C220.566 153.525 214.869 168.828 212.425 172.558V172.558Z" fill="black"/>
<path d="M160.357 182.349C157.516 185.781 152.429 186.263 148.997 183.422C145.56 180.586 145.078 175.499 147.919 172.062C150.761 168.626 163.694 158.655 167.131 161.496C170.563 164.333 163.198 178.912 160.357 182.349Z" fill="black"/>
<path d="M274.876 186.736C274.592 191.19 270.757 194.565 266.305 194.286C261.865 194.007 258.485 190.168 258.764 185.724C259.048 181.271 263.657 165.604 268.105 165.883C272.549 166.167 275.154 182.292 274.876 186.736Z" fill="black"/>
<path d="M266.692 134.616C264.915 138.7 260.149 140.568 256.07 138.781C251.985 136.998 250.122 132.238 251.909 128.158C253.692 124.074 263.378 110.917 267.467 112.704C271.547 114.486 268.474 130.536 266.692 134.616V134.616Z" fill="black"/>
<path d="M338.166 124.934C340.932 128.432 340.341 133.509 336.842 136.275C333.349 139.04 328.271 138.445 325.506 134.947C322.74 131.453 315.697 116.717 319.19 113.952C322.684 111.186 335.401 121.44 338.166 124.934V124.934Z" fill="black"/>
<path d="M338.417 191.898C339.613 196.191 337.107 200.644 332.81 201.844C328.518 203.041 324.069 200.526 322.868 196.233C321.672 191.941 320.873 175.631 325.171 174.43C329.458 173.234 337.221 187.606 338.417 191.898Z" fill="black"/>
<path d="M392.239 163.089C394.876 166.677 394.106 171.731 390.513 174.369C386.92 177.007 381.871 176.236 379.233 172.644C376.596 169.051 370.072 154.074 373.664 151.436C377.257 148.798 389.601 159.497 392.239 163.089Z" fill="black"/>
<path d="M617.885 218.825V73.3701H657.373V130.188H709.646V73.3701H749.135V218.825H709.646V162.006H657.373V218.825H617.885Z" fill="#FFA900"/>
<path d="M767.885 218.825V73.3701H872.714V105.188H807.373V130.188H867.317V162.006H807.373V187.006H872.43V218.825H767.885Z" fill="#FFA900"/>
<path d="M934.628 73.3701L958.492 115.7H959.628L983.776 73.3701H1027.81L984.344 146.097L1029.51 218.825H984.344L959.628 175.643H958.492L933.776 218.825H888.89L933.492 146.097L890.31 73.3701H934.628Z" fill="#FFA900"/>
<path d="M617.885 398.825V253.37H720.157V285.188H657.373V310.188H713.907V342.007H657.373V398.825H617.885Z" fill="white"/>
<path d="M875.591 326.097C875.591 342.291 872.442 355.951 866.145 367.078C859.847 378.157 851.348 386.561 840.648 392.291C829.947 397.972 818.015 400.813 804.852 400.813C791.595 400.813 779.615 397.949 768.915 392.22C758.261 386.443 749.786 378.015 743.488 366.935C737.238 355.809 734.113 342.196 734.113 326.097C734.113 309.904 737.238 296.268 743.488 285.188C749.786 274.061 758.261 265.657 768.915 259.975C779.615 254.246 791.595 251.381 804.852 251.381C818.015 251.381 829.947 254.246 840.648 259.975C851.348 265.657 859.847 274.061 866.145 285.188C872.442 296.268 875.591 309.904 875.591 326.097ZM834.966 326.097C834.966 317.385 833.806 310.046 831.486 304.08C829.213 298.067 825.827 293.522 821.329 290.444C816.879 287.319 811.386 285.756 804.852 285.756C798.318 285.756 792.802 287.319 788.304 290.444C783.853 293.522 780.468 298.067 778.148 304.08C775.875 310.046 774.738 317.385 774.738 326.097C774.738 334.81 775.875 342.172 778.148 348.185C780.468 354.151 783.853 358.697 788.304 361.822C792.802 364.899 798.318 366.438 804.852 366.438C811.386 366.438 816.879 364.899 821.329 361.822C825.827 358.697 829.213 354.151 831.486 348.185C833.806 342.172 834.966 334.81 834.966 326.097Z" fill="white"/>
<path d="M1034.77 326.097C1034.77 342.291 1031.62 355.951 1025.32 367.078C1019.03 378.157 1010.53 386.561 999.827 392.291C989.126 397.972 977.195 400.813 964.032 400.813C950.774 400.813 938.795 397.949 928.094 392.22C917.441 386.443 908.965 378.015 902.668 366.935C896.418 355.809 893.293 342.196 893.293 326.097C893.293 309.904 896.418 296.268 902.668 285.188C908.965 274.061 917.441 265.657 928.094 259.975C938.795 254.246 950.774 251.381 964.032 251.381C977.195 251.381 989.126 254.246 999.827 259.975C1010.53 265.657 1019.03 274.061 1025.32 285.188C1031.62 296.268 1034.77 309.904 1034.77 326.097ZM994.145 326.097C994.145 317.385 992.985 310.046 990.665 304.08C988.393 298.067 985.007 293.522 980.509 290.444C976.058 287.319 970.566 285.756 964.032 285.756C957.498 285.756 951.982 287.319 947.483 290.444C943.033 293.522 939.647 298.067 937.327 304.08C935.055 310.046 933.918 317.385 933.918 326.097C933.918 334.81 935.055 342.172 937.327 348.185C939.647 354.151 943.033 358.697 947.483 361.822C951.982 364.899 957.498 366.438 964.032 366.438C970.566 366.438 976.058 364.899 980.509 361.822C985.007 358.697 988.393 354.151 990.665 348.185C992.985 342.172 994.145 334.81 994.145 326.097Z" fill="white"/>
<path d="M1109.01 398.825H1053.04V253.37H1108.44C1123.4 253.37 1136.33 256.282 1147.22 262.106C1158.15 267.882 1166.58 276.216 1172.5 287.106C1178.47 297.949 1181.45 310.946 1181.45 326.097C1181.45 341.249 1178.49 354.27 1172.57 365.16C1166.65 376.003 1158.27 384.336 1147.43 390.16C1136.59 395.936 1123.78 398.825 1109.01 398.825ZM1092.53 365.302H1107.59C1114.78 365.302 1120.92 364.142 1125.98 361.822C1131.09 359.502 1134.98 355.501 1137.63 349.819C1140.33 344.137 1141.68 336.23 1141.68 326.097C1141.68 315.965 1140.3 308.058 1137.56 302.376C1134.86 296.694 1130.88 292.693 1125.63 290.373C1120.42 288.053 1114.03 286.893 1106.45 286.893H1092.53V365.302Z" fill="white"/>
<path d="M1074.67 161.438V190.984H1091.03L1099.95 161.438H1074.67Z" fill="#FFA900"/>
<path fill-rule="evenodd" clip-rule="evenodd" d="M1082.62 218.825H1040.01L1088.02 73.3701H1142L1190.01 218.825H1147.39L1138.99 190.984H1154.78V161.438H1130.07L1115.58 113.427H1114.44L1099.95 161.438H1074.67V190.984H1091.03L1082.62 218.825ZM1091.03 190.984L1099.95 161.438H1130.07L1138.99 190.984H1091.03Z" fill="#FFA900"/>
<path d="M1154.78 190.984V161.438H1130.07L1138.99 190.984H1154.78Z" fill="#FFA900"/>
</g>
<defs>
<clipPath id="clip0_21_132">
<rect width="1190" height="507" fill="white"/>
</clipPath>
</defs>
</svg>
