<svg width="1184" height="507" viewBox="0 0 1184 507" fill="none" xmlns="http://www.w3.org/2000/svg">
<path d="M266.115 506.825C413.086 506.825 532.23 393.369 532.23 253.413C532.23 113.457 413.086 0 266.115 0C119.144 0 0 113.457 0 253.413C0 393.369 119.144 506.825 266.115 506.825Z" fill="#FFA900"/>
<path d="M100.398 271.007C98.1854 271.007 96.7675 272.19 96.1146 272.889C95.4768 273.584 94.4414 275.059 94.6116 277.21C102.303 372.516 183.539 380.491 266.081 380.491C346.75 380.491 430.171 380.491 437.621 277.243C437.782 275.049 436.718 273.555 436.075 272.86C435.428 272.171 434.019 271.007 431.83 271.007H100.398ZM266.081 399.4C198.545 399.4 85.4971 399.4 75.7629 278.732C75.2102 271.915 77.5641 265.117 82.2208 260.068C86.8917 255.001 93.5145 252.098 100.398 252.098H431.83C438.661 252.098 445.256 254.967 449.913 259.983C454.584 264.994 456.975 271.783 456.484 278.6C447.757 399.4 347.03 399.4 266.081 399.4Z" fill="black"/>
<path d="M266.114 92.4944C197.212 92.4944 134.124 127.345 97.3488 185.729C93.8691 191.246 93.6801 197.964 96.8427 203.684C100.01 209.427 105.816 212.855 112.363 212.855H419.87C426.417 212.855 432.218 209.427 435.385 203.684C438.548 197.964 438.354 191.246 434.88 185.729C398.109 127.345 335.026 92.4944 266.114 92.4944ZM419.87 231.765H112.363C98.8239 231.765 86.8352 224.683 80.287 212.826C73.7539 200.98 74.1462 187.085 81.3465 175.65C121.606 111.735 190.673 73.584 266.114 73.584C341.554 73.584 410.627 111.74 450.877 175.65C458.081 187.081 458.479 200.98 451.941 212.822C445.393 224.683 433.405 231.765 419.87 231.765Z" fill="black"/>
<path d="M89.2888 231.656C85.861 231.656 82.8407 234.086 82.1126 237.433C81.4552 240.421 82.7413 242.581 83.5636 243.607C84.3912 244.628 86.2255 246.344 89.2888 246.344H442.94C446.273 246.344 449.195 244.094 450.04 240.875C450.627 238.652 450.154 236.336 448.75 234.516C447.35 232.701 445.233 231.656 442.94 231.656H89.2888ZM442.94 265.254H89.2888C81.2948 265.254 73.8437 261.685 68.8377 255.463C63.8264 249.242 61.9356 241.201 63.6374 233.4C66.2519 221.43 77.0395 212.747 89.2888 212.747H442.94C451.137 212.747 458.716 216.476 463.722 222.972C468.737 229.467 470.411 237.745 468.331 245.673C465.301 257.203 454.858 265.254 442.94 265.254Z" fill="black"/>
<path d="M454.962 266.54H455.009H454.962ZM101.618 266.54C105.295 269.287 108.425 272.279 111.286 275.016C118.769 282.178 124.678 287.832 137.021 287.832C149.356 287.832 155.265 282.178 162.743 275.016C165.627 272.26 168.743 269.277 172.402 266.54H101.618ZM230.687 266.54C234.35 269.277 237.471 272.26 240.35 275.016C247.833 282.178 253.743 287.832 266.091 287.832C278.429 287.832 284.338 282.178 291.822 275.016C294.701 272.265 297.821 269.277 301.485 266.54H230.687ZM359.789 266.54C363.448 269.277 366.568 272.26 369.451 275.016C376.935 282.178 382.844 287.832 395.188 287.832C407.536 287.832 413.445 282.178 420.929 275.016C423.794 272.279 426.918 269.287 430.597 266.54H359.789ZM395.188 306.742C375.257 306.742 364.79 296.729 356.375 288.683C348.892 281.521 342.978 275.867 330.634 275.867C318.291 275.867 312.382 281.521 304.898 288.683C296.484 296.729 286.017 306.742 266.091 306.742C246.155 306.742 235.688 296.729 227.278 288.683C219.795 281.521 213.885 275.867 201.542 275.867C189.208 275.867 183.298 281.521 175.82 288.683C167.414 296.729 156.948 306.742 137.021 306.742C117.091 306.742 106.624 296.729 98.2096 288.683C91.3782 282.136 85.9792 276.969 75.9475 276.023C68.5868 275.333 63.0273 269.249 63.0273 261.869C63.0273 254.017 69.4144 247.63 77.2668 247.63H454.962C462.814 247.63 469.196 254.017 469.196 261.869C469.196 269.249 463.641 275.333 456.267 276.023C446.244 276.969 440.841 282.14 434 288.683C425.59 296.729 415.124 306.742 395.188 306.742Z" fill="black"/>
<path d="M206.425 172.558C203.986 176.293 198.984 177.333 195.254 174.899C191.524 172.454 190.48 167.453 192.923 163.722C195.363 159.993 207.111 148.642 210.84 151.082C214.566 153.525 208.869 168.828 206.425 172.558Z" fill="black"/>
<path d="M154.357 182.349C151.516 185.781 146.429 186.263 142.997 183.422C139.56 180.586 139.078 175.499 141.919 172.062C144.761 168.626 157.694 158.655 161.131 161.496C164.563 164.333 157.198 178.912 154.357 182.349Z" fill="black"/>
<path d="M268.876 186.736C268.592 191.19 264.757 194.565 260.305 194.286C255.865 194.007 252.485 190.168 252.764 185.724C253.048 181.271 257.657 165.604 262.105 165.883C266.549 166.167 269.154 182.292 268.876 186.736Z" fill="black"/>
<path d="M260.692 134.616C258.915 138.7 254.149 140.568 250.07 138.781C245.985 136.998 244.122 132.238 245.909 128.158C247.692 124.074 257.378 110.917 261.467 112.704C265.547 114.486 262.474 130.536 260.692 134.616Z" fill="black"/>
<path d="M332.166 124.934C334.932 128.432 334.341 133.509 330.842 136.275C327.349 139.04 322.271 138.445 319.506 134.947C316.74 131.453 309.697 116.717 313.19 113.952C316.684 111.186 329.401 121.44 332.166 124.934Z" fill="black"/>
<path d="M332.417 191.898C333.613 196.191 331.107 200.644 326.81 201.844C322.518 203.041 318.069 200.526 316.868 196.233C315.672 191.941 314.873 175.631 319.171 174.43C323.458 173.234 331.221 187.606 332.417 191.898Z" fill="black"/>
<path d="M386.239 163.089C388.876 166.677 388.106 171.731 384.513 174.369C380.92 177.007 375.871 176.236 373.233 172.644C370.596 169.051 364.072 154.074 367.664 151.436C371.257 148.798 383.601 159.497 386.239 163.089Z" fill="black"/>
<path d="M611.885 218.825V73.3701H651.373V130.188H703.646V73.3701H743.135V218.825H703.646V162.006H651.373V218.825H611.885Z" fill="#FFA900"/>
<path d="M761.885 218.825V73.3701H866.714V105.188H801.373V130.188H861.317V162.006H801.373V187.006H866.43V218.825H761.885Z" fill="#FFA900"/>
<path d="M928.628 73.3701L952.492 115.7H953.628L977.776 73.3701H1021.81L978.344 146.097L1023.51 218.825H978.344L953.628 175.643H952.492L927.776 218.825H882.89L927.492 146.097L884.31 73.3701H928.628Z" fill="#FFA900"/>
<path d="M611.885 398.825V253.37H714.157V285.188H651.373V310.188H707.907V342.007H651.373V398.825H611.885Z" fill="white"/>
<path d="M869.591 326.097C869.591 342.291 866.442 355.951 860.145 367.078C853.847 378.157 845.348 386.561 834.648 392.291C823.947 397.972 812.015 400.813 798.852 400.813C785.595 400.813 773.615 397.949 762.915 392.22C752.261 386.443 743.786 378.015 737.488 366.935C731.238 355.809 728.113 342.196 728.113 326.097C728.113 309.904 731.238 296.268 737.488 285.188C743.786 274.061 752.261 265.657 762.915 259.975C773.615 254.246 785.595 251.381 798.852 251.381C812.015 251.381 823.947 254.246 834.648 259.975C845.348 265.657 853.847 274.061 860.145 285.188C866.442 296.268 869.591 309.904 869.591 326.097ZM828.966 326.097C828.966 317.385 827.806 310.046 825.486 304.08C823.213 298.067 819.827 293.522 815.329 290.444C810.879 287.319 805.386 285.756 798.852 285.756C792.318 285.756 786.802 287.319 782.304 290.444C777.853 293.522 774.468 298.067 772.148 304.08C769.875 310.046 768.738 317.385 768.738 326.097C768.738 334.81 769.875 342.172 772.148 348.185C774.468 354.151 777.853 358.697 782.304 361.822C786.802 364.899 792.318 366.438 798.852 366.438C805.386 366.438 810.879 364.899 815.329 361.822C819.827 358.697 823.213 354.151 825.486 348.185C827.806 342.172 828.966 334.81 828.966 326.097Z" fill="white"/>
<path d="M1028.77 326.097C1028.77 342.291 1025.62 355.951 1019.32 367.078C1013.03 378.157 1004.53 386.561 993.827 392.291C983.126 397.972 971.195 400.813 958.032 400.813C944.774 400.813 932.795 397.949 922.094 392.22C911.441 386.443 902.966 378.015 896.668 366.935C890.418 355.809 887.293 342.196 887.293 326.097C887.293 309.904 890.418 296.268 896.668 285.188C902.966 274.061 911.441 265.657 922.094 259.975C932.795 254.246 944.774 251.381 958.032 251.381C971.195 251.381 983.126 254.246 993.827 259.975C1004.53 265.657 1013.03 274.061 1019.32 285.188C1025.62 296.268 1028.77 309.904 1028.77 326.097ZM988.145 326.097C988.145 317.385 986.985 310.046 984.665 304.08C982.393 298.067 979.007 293.522 974.509 290.444C970.058 287.319 964.566 285.756 958.032 285.756C951.498 285.756 945.982 287.319 941.483 290.444C937.033 293.522 933.647 298.067 931.327 304.08C929.055 310.046 927.918 317.385 927.918 326.097C927.918 334.81 929.055 342.172 931.327 348.185C933.647 354.151 937.033 358.697 941.483 361.822C945.982 364.899 951.498 366.438 958.032 366.438C964.566 366.438 970.058 364.899 974.509 361.822C979.007 358.697 982.393 354.151 984.665 348.185C986.985 342.172 988.145 334.81 988.145 326.097Z" fill="white"/>
<path d="M1103.01 398.825H1047.04V253.37H1102.44C1117.4 253.37 1130.33 256.282 1141.22 262.106C1152.15 267.882 1160.58 276.216 1166.5 287.106C1172.47 297.949 1175.45 310.946 1175.45 326.097C1175.45 341.249 1172.49 354.27 1166.57 365.16C1160.65 376.003 1152.27 384.336 1141.43 390.16C1130.59 395.936 1117.78 398.825 1103.01 398.825ZM1086.53 365.302H1101.59C1108.78 365.302 1114.92 364.142 1119.98 361.822C1125.09 359.502 1128.98 355.501 1131.63 349.819C1134.33 344.137 1135.68 336.23 1135.68 326.097C1135.68 315.965 1134.3 308.058 1131.56 302.376C1128.86 296.694 1124.88 292.693 1119.63 290.373C1114.42 288.053 1108.03 286.893 1100.45 286.893H1086.53V365.302Z" fill="white"/>
<path d="M1068.67 161.438V190.984H1085.03L1093.95 161.438H1068.67Z" fill="#FFA900"/>
<path fill-rule="evenodd" clip-rule="evenodd" d="M1076.62 218.825H1034.01L1082.02 73.3701H1136L1184.01 218.825H1141.39L1132.99 190.984H1148.78V161.438H1124.07L1109.58 113.427H1108.44L1093.95 161.438H1068.67V190.984H1085.03L1076.62 218.825ZM1085.03 190.984L1093.95 161.438H1124.07L1132.99 190.984H1085.03Z" fill="#FFA900"/>
<path d="M1148.78 190.984V161.438H1124.07L1132.99 190.984H1148.78Z" fill="#FFA900"/>
</svg>
